#tb 0: 1/2
#media_type 0: video
#codec_id 0: rawvideo
#dimensions 0: 320x240
#sar 0: 1/1
0,          0,          0,        1,   230400, 0xccb5ffac
0,          1,          1,        1,   230400, 0x6aed4ef7
0,          2,          2,        1,   230400, 0xc7bc3502
0,          3,          3,        1,   230400, 0x2a7b9fa5
0,          4,          4,        1,   230400, 0x29cf1fe7
0,          5,          5,        1,   230400, 0x1b457849
0,          6,          6,        1,   230400, 0x42fd4a9e
0,          7,          7,        1,   230400, 0xccec0881
0,          8,          8,        1,   230400, 0x9b6cca80
0,          9,          9,        1,   230400, 0xee3d5ff1
0,         10,         10,        1,   230400, 0x794d9319
0,         11,         11,        1,   230400, 0x5196b793
0,         12,         12,        1,   230400, 0x239d7933
0,         13,         13,        1,   230400, 0x02ea92ee
0,         14,         14,        1,   230400, 0x111b2c9b
0,         15,         15,        1,   230400, 0x5fbf8810
0,         16,         16,        1,   230400, 0x96afa114
0,         17,         17,        1,   230400, 0x3b587382
0,         18,         18,        1,   230400, 0xb6aa9d42
0,         19,         19,        1,   230400, 0xd463c17e
